<svg xmlns="http://www.w3.org/2000/svg" viewBox="0 0 880.44 267.63"><defs><style>.cls-1{fill:#dcaf27;}.cls-2{fill:#c27514;}.cls-3{fill:#1c1c1c;}</style></defs><g id="Layer_2" data-name="Layer 2"><g id="Layer_1-2" data-name="Layer 1"><path class="cls-1" d="M444.86,133.15c-.06,1.76-.09,2.67-.09,2.67s-.06-.91-.17-2.67-.37-4.35-.87-7.7a103.43,103.43,0,0,0-8.38-27.88A97.64,97.64,0,0,0,424.79,79.9,87,87,0,0,0,408,62.85a60.34,60.34,0,0,0-23.81-11.3,45.42,45.42,0,0,0-13.84-.79,41,41,0,0,0-13.72,4c-.57.26-1.09.53-1.6.81l-.77.42-.87.51-3.56,2.14c-1.23.77-2.51,1.47-3.8,2.17l-1.95,1-2,1a101.94,101.94,0,0,1-17,6.65,86.81,86.81,0,0,1-38.67,2.13,98.73,98.73,0,0,1-37.85-15.52c-1.48-1-3-2.07-4.28-3l-3.93-2.86c-2.57-1.82-5.21-3.59-7.93-5.28a164.49,164.49,0,0,0-17-9.23A184.49,184.49,0,0,0,177.87,22.8,158.22,158.22,0,0,0,158,19.61c-3.32-.32-6.68-.52-9.9-.57-3.41-.05-6.87,0-10.27.17a146.57,146.57,0,0,0-40,7.24A107.4,107.4,0,0,0,37.07,76.82a152.79,152.79,0,0,0-14.71,38,236,236,0,0,0-6.11,40.54c-.11,1.69-.24,3.4-.32,5.09l-.21,5c-.08,1.66-.08,3.45-.12,5.17l.29,2.6.33.56v1.91c0,6.79-.24,13.52,0,20.18a284.52,284.52,0,0,0,4.19,38.81,184.27,184.27,0,0,0,9.13,32.88h-14a200.17,200.17,0,0,1-9-30.09Q4.38,227.65,3,217.44c-.91-6.8-1.64-13.68-2.11-20.62s-.82-13.94-.88-21l0-1.32,0-.66v-3.34c0-1.75,0-3.43,0-5.25s.09-3.62.13-5.43.16-3.59.24-5.39c.38-7.18,1-14.42,1.93-21.69s2.3-14.53,4-21.78A183.89,183.89,0,0,1,12.85,89.4a144.79,144.79,0,0,1,9.53-20.81,130.61,130.61,0,0,1,9.9-15.24A121.52,121.52,0,0,1,51.81,32.77a126.6,126.6,0,0,1,40.66-22.3A158.69,158.69,0,0,1,137.2,2.73c3.75-.12,7.43-.17,11.13-.07,3.9.1,7.63.37,11.36.77a174,174,0,0,1,21.82,3.88A192.36,192.36,0,0,1,222,22.14a180.89,180.89,0,0,1,18.3,10.51c2.93,1.91,5.77,3.92,8.55,6l4,3.1c1.35,1.06,2.49,1.9,3.7,2.78A86.44,86.44,0,0,0,288.79,59a70.78,70.78,0,0,0,8.47,1.29,72.65,72.65,0,0,0,8.46.3,80.06,80.06,0,0,0,16.48-2.13,91,91,0,0,0,15.44-5.21l1.85-.81,1.81-.88c1.2-.58,2.4-1.16,3.57-1.81l3.65-2,.93-.49,1.06-.52c.71-.35,1.41-.68,2.1-.95a50.32,50.32,0,0,1,17.06-4.06,51.39,51.39,0,0,1,16.47,1.78,67.62,67.62,0,0,1,26,14.22,88,88,0,0,1,16.72,19.3,100.59,100.59,0,0,1,9.63,19.18,97.29,97.29,0,0,1,4.66,16.54,99.93,99.93,0,0,1,1.58,12.53c0,.62.07,1.21.1,1.78v0C444.91,129.7,444.87,131.72,444.86,133.15Z"/><path class="cls-2" d="M444.8,127.12v0c0,1.76,0,2.67,0,2.67s0-.91-.11-2.67-.26-4.36-.72-7.73A103,103,0,0,0,436,91.3a98.28,98.28,0,0,0-10.37-18A87.33,87.33,0,0,0,408.86,55.8,62,62,0,0,0,384.6,43.9a46.84,46.84,0,0,0-14.37-1,43.05,43.05,0,0,0-14.42,4c-2.28,1.05-4.47,2.42-7,3.89-1.22.74-2.48,1.42-3.75,2.1l-1.92,1-2,1a100.44,100.44,0,0,1-16.7,6.36A84.49,84.49,0,0,1,286.9,63,96.41,96.41,0,0,1,250.2,47.7c-1.42-1-2.88-2-4.16-3l-3.94-2.91c-2.62-1.87-5.29-3.7-8-5.43a168.57,168.57,0,0,0-17.29-9.51,183.76,183.76,0,0,0-38.14-13.3,160.64,160.64,0,0,0-20.25-3.31c-3.41-.34-6.84-.56-10.2-.63s-7,0-10.45.15a147.24,147.24,0,0,0-41,7.33A111,111,0,0,0,34,69.11a153.79,153.79,0,0,0-14.95,39A240.3,240.3,0,0,0,13,149.21c-.09,1.72-.23,3.44-.3,5.15s-.13,3.41-.2,5.12-.07,3.46-.11,5.18l0,2.6c0,.77,0,1.69,0,2.53,0,6.84.18,13.62.5,20.34a290.65,290.65,0,0,0,4.62,39.21,184.8,184.8,0,0,0,10.56,36q.46,1.13,1,2.25H20.85A192,192,0,0,1,9.38,231Q7.26,221.19,6,211.07c-.85-6.73-1.54-13.54-2-20.42s-.72-13.83-.77-20.82c0-.89,0-1.7,0-2.66v-2.6c0-1.75,0-3.45.05-5.24s.09-3.56.14-5.34.17-3.55.25-5.33c.39-7.11,1-14.26,2-21.42s2.31-14.33,4-21.45A163.55,163.55,0,0,1,25.44,64.32a127.63,127.63,0,0,1,6.84-11A119.15,119.15,0,0,1,54,29.47,122.88,122.88,0,0,1,93.58,7.81,157.43,157.43,0,0,1,137.33.15C141,0,144.64,0,148.28,0s7.42.34,11.06.72a170.13,170.13,0,0,1,21.41,3.76A192.57,192.57,0,0,1,220.61,19a176.85,176.85,0,0,1,18,10.23c2.89,1.86,5.69,3.82,8.43,5.83l4,3c1.33,1,2.56,1.93,3.82,2.84a88.49,88.49,0,0,0,33.41,14.73,73.34,73.34,0,0,0,8.78,1.25,75.38,75.38,0,0,0,8.75.23,82.35,82.35,0,0,0,17-2.38,93.62,93.62,0,0,0,15.77-5.5l1.88-.85,1.83-.91c1.23-.61,2.44-1.22,3.62-1.89,2.32-1.26,4.85-2.75,7.55-3.92a48.56,48.56,0,0,1,16.38-4,49.91,49.91,0,0,1,15.92,1.57,66.21,66.21,0,0,1,25.53,13.62A88.22,88.22,0,0,1,428,71.66a101.3,101.3,0,0,1,9.82,18.87,99.46,99.46,0,0,1,4.88,16.38,97.54,97.54,0,0,1,1.78,12.46C444.77,122.75,444.78,125.36,444.8,127.12Z"/><path class="cls-1" d="M420.77,144.81l10-.75q5-.37,10-.68c6.63-.41,13.27-.88,19.91-1.21l19.9-1.06c3.32-.19,6.63.14,9.94.22l9.94.23,79.5,1.75,159,3.5L735.56,148l.75-.67.8-.74c.53-.51,1-1,1.55-1.55a41.82,41.82,0,0,0,2.81-3.25,21.32,21.32,0,0,0,2.12-3.28,7.53,7.53,0,0,0,.36-.77,7,7,0,0,0,.26-.71c.08-.23.12-.43.17-.62s0-.34.06-.48l.64-5.22,4.85.48,93.67,9.33,5.16.52-.71,5.18c-.09.69-.19,1.64-.26,2.48s-.11,1.75-.14,2.63c-.06,1.76,0,3.54,0,5.31l0,5.33c0,1.77,0,3.55.15,5.33a74.72,74.72,0,0,0,4.09,20.89,59.24,59.24,0,0,0,4.47,9.72,51.17,51.17,0,0,0,6.36,8.7c1.22,1.34,2.52,2.61,3.87,3.84a54.73,54.73,0,0,0,4.29,3.44,61.32,61.32,0,0,0,9.63,5.61A54.25,54.25,0,0,1,860.35,209,57.88,57.88,0,0,1,846,190.69a81.87,81.87,0,0,1-7.27-22.3c-.36-1.93-.65-3.87-.89-5.82a55,55,0,0,1-.46-5.87c0-2,.08-3.92.21-5.89.06-1,.13-2,.23-3s.17-1.93.32-3.09l4.46,5.69-93.67-9.33,5.49-4.74a14.18,14.18,0,0,1-.24,1.92,16.31,16.31,0,0,1-1,3.28,15.59,15.59,0,0,1-.66,1.43,30.56,30.56,0,0,1-3.11,4.85,48.07,48.07,0,0,1-3.52,4.07c-.61.64-1.23,1.26-1.87,1.87l-1,.91c-.34.31-.63.57-1.06.93l-1.42,1.21-1.9,0-159-3.5-79.5-1.75-9.94-.21c-3.31-.06-6.63.13-9.94-.21l-19.84-1.93c-6.61-.62-13.22-1.39-19.84-2.09-3.3-.34-6.61-.72-9.91-1.11Z"/><path class="cls-2" d="M420.77,144.81l19.82-.38,19.81-.29q19.82-.24,39.64-.36l19.81-.12,19.82,0,19.81,0,19.81,0c13.21,0,26.42,0,39.63.16l39.63.28,39.62.45,19.81.25,19.81.32-1.77.64.83-.72.84-.78c.56-.53,1.11-1.07,1.64-1.62a40,40,0,0,0,3-3.42,23.31,23.31,0,0,0,2.38-3.63c.16-.31.31-.62.44-.92s.25-.62.34-.91.17-.6.24-.88.08-.56.11-.83l.26-2.75,2.6.28,23.4,2.5,23.4,2.56,23.39,2.57,23.39,2.64L844,140l-.2,1.67c-.22,1.83-.35,3.78-.44,5.69s-.12,3.84-.1,5.76a113.92,113.92,0,0,0,.66,11.53,88,88,0,0,0,5.3,22.4,59.54,59.54,0,0,0,12.1,19.52,51.15,51.15,0,0,0,4.21,4,47.63,47.63,0,0,0,4.63,3.5,50.46,50.46,0,0,0,5,3c1.72.92,3.51,1.69,5.31,2.44a53.45,53.45,0,0,1-19.92-12.15,60.89,60.89,0,0,1-13.14-19.53A90.23,90.23,0,0,1,841.21,165a111,111,0,0,1-1-11.8q-.1-3,0-5.93c0-2,.12-3.93.31-6l1.5,1.86-23.45-2L795.05,139l-23.44-2.11-23.43-2.17,2.86-2.47a14.41,14.41,0,0,1-1.63,5.67,30,30,0,0,1-2.86,4.5,50.25,50.25,0,0,1-3.33,3.9c-.59.61-1.18,1.21-1.79,1.8l-.93.88c-.32.29-.61.56-1,.88l-.75.63h-1l-19.81-.05-19.81-.13-39.63-.29-39.62-.47c-13.21-.13-26.42-.39-39.63-.6l-19.81-.32-19.81-.41-19.81-.42L500,147.35q-19.8-.48-39.62-1.12l-19.8-.66Z"/><path class="cls-2" d="M306.5,138.94c-3.84-.06-7.72-.08-11.61-.1a46,46,0,0,1,61.57,1.63c-4.49-.24-9.3-.47-14.39-.67-5.46-.2-11.23-.39-17.19-.53S312.76,139,306.5,138.94Z"/><path class="cls-2" d="M287.52,152.22h-3.38a44.18,44.18,0,0,1,3.38-5.41h0c6.36,0,12.71,0,19-.12s12.42-.19,18.38-.34,11.73-.33,17.19-.53,10.63-.47,15.4-.72l3.11-.16a45.39,45.39,0,0,1,5.91,9.48c-2.81-.18-5.82-.36-9-.51-4.77-.25-9.93-.51-15.4-.72s-11.23-.39-17.19-.53-12.12-.28-18.38-.33S293.88,152.24,287.52,152.22Z"/><path class="cls-2" d="M287.52,165.62l-8,0a46.59,46.59,0,0,1,1.33-5.45l6.7,0c6.36,0,12.72,0,19-.12s12.42-.19,18.38-.34,11.73-.33,17.19-.53,10.63-.47,15.4-.72c3.76-.17,7.26-.38,10.48-.59a45.16,45.16,0,0,1,2.46,10.16c-3.86-.25-8.2-.54-12.94-.76s-9.93-.51-15.4-.72-11.23-.39-17.19-.53-12.12-.28-18.38-.33S293.88,165.64,287.52,165.62Z"/><path class="cls-2" d="M342.07,212.83l7.59-.32a46.07,46.07,0,0,1-47.76,1.24l4.6-.05c6.26-.06,12.42-.19,18.38-.34S336.61,213,342.07,212.83Z"/><path class="cls-2" d="M363.4,198.8a46.29,46.29,0,0,1-7.25,8.65c-4.4-.23-9.11-.46-14.08-.65-5.46-.2-11.23-.39-17.19-.53s-12.12-.28-18.38-.33c-4.88-.07-9.82-.09-14.77-.11a44.74,44.74,0,0,1-4.2-5c6.36,0,12.71,0,19-.12s12.42-.19,18.38-.34,11.73-.33,17.19-.53,10.63-.47,15.4-.72C359.52,199,361.5,198.91,363.4,198.8Z"/><path class="cls-2" d="M369.49,184.62A45.42,45.42,0,0,1,365.63,195c-2.56-.16-5.29-.32-8.16-.45-4.77-.25-9.93-.51-15.4-.72s-11.23-.39-17.19-.53-12.12-.28-18.38-.33-12.62-.1-19-.12h-4.65a43.46,43.46,0,0,1-2.18-5.84l6.83,0c6.36,0,12.72,0,19-.12s12.42-.19,18.38-.34,11.73-.33,17.19-.53,10.63-.47,15.4-.72C361.83,185.11,365.86,184.86,369.49,184.62Z"/><path class="cls-2" d="M370.77,173.82a45.92,45.92,0,0,1-.64,7.65c-3.79-.26-8-.54-12.66-.75-4.77-.25-9.93-.51-15.4-.72s-11.23-.39-17.19-.53-12.12-.28-18.38-.33-12.62-.1-19-.12l-8.45,0a45.2,45.2,0,0,1-.3-5.23v-.24l8.75,0c6.36,0,12.72,0,19-.12s12.42-.19,18.38-.34,11.73-.33,17.19-.53,10.63-.47,15.4-.72,9.14-.5,13-.76h.2C370.74,172,370.77,172.92,370.77,173.82Z"/><path class="cls-1" d="M188.05,142.59l-2.28.23,2.28.23c1.49.12,3.68.36,6.46.56,2.35.18,5.12.41,8.26.62V154.8c-3.14.21-5.91.44-8.26.63-2.78.2-5,.43-6.46.56l-2.28.23,2.28.23c1.49.12,3.68.36,6.46.56,2.35.18,5.12.41,8.26.62V168.2c-3.14.21-5.91.44-8.26.63-2.78.2-5,.43-6.46.56l-2.28.23,2.28.23c1.49.12,3.68.36,6.46.56,2.35.18,5.12.41,8.26.62V181.6c-3.14.21-5.91.44-8.26.63-2.78.2-5,.43-6.46.56l-2.28.23,2.28.23c1.49.12,3.68.36,6.46.56,2.35.18,5.12.41,8.26.62v11c-3.14.21-5.91.44-8.26.63-2.78.2-5,.43-6.46.56l-2.28.23,2.28.23c1.49.12,3.68.36,6.46.56,2.35.18,5.12.41,8.26.62V208.4c-3.14.21-5.91.44-8.26.63-2.78.2-5,.43-6.46.56l-2.28.23,2.28.23c1.49.12,3.68.36,6.46.56,2.35.18,5.12.41,8.26.62v21.09a11.5,11.5,0,0,1-23,0v-110a11.5,11.5,0,0,1,23,0V141.4c-3.14.21-5.91.44-8.26.63C191.73,142.23,189.54,142.46,188.05,142.59Z"/><path class="cls-3" d="M445.57,178.41q-6.37-4.18-18.26-4.18-3.3,0-7.67.31a67.12,67.12,0,0,0-8.29,1.07V228h12v-17.8h3.76q12,0,18.41-4.26t6.44-13.84Q451.93,182.58,445.57,178.41Zm-9.13,19.91q-3.15,1.69-9.36,1.69h-3.76V184.66l2.19-.15c.84,0,1.69-.08,2.57-.08a30.06,30.06,0,0,1,4.75.35,10.39,10.39,0,0,1,3.65,1.23,6.22,6.22,0,0,1,2.3,2.34,7.62,7.62,0,0,1,.8,3.68Q439.58,196.64,436.44,198.32Z"/><path class="cls-3" d="M472.72,217.73V174.84h-12V228h35.52V217.73Z"/><path class="cls-3" d="M549.11,212.13q-2.7-7.29-5.28-13.73t-5.13-12.24q-2.54-5.79-5.16-11.32H522.19q-2.69,5.53-5.19,11.32t-5.08,12.24q-2.58,6.43-5.27,13.73T501,228h12.42c.59-1.83,1.21-3.73,1.89-5.68s1.35-3.89,2-5.83h20.76c.68,1.93,1.35,3.87,2,5.82s1.31,3.84,1.9,5.69h12.82Q551.81,219.42,549.11,212.13ZM520,207c.84-2.3,1.66-4.49,2.47-6.59s1.55-4,2.21-5.75,1.24-3.28,1.75-4.61.91-2.38,1.18-3.15c.31.75.73,1.79,1.25,3.12l1.81,4.61c.68,1.74,1.41,3.66,2.17,5.76s1.55,4.3,2.36,6.61Z"/><path class="cls-3" d="M585,174.84c-1.64,3.68-3.43,7.32-5.37,10.95s-4,7.24-6.15,10.86q-3.21-5.43-6.05-10.86c-1.89-3.63-3.66-7.27-5.29-10.95H548.22q4.37,8.59,9.09,16.73t9.93,16.26V228h12V207.68q5.22-8.13,9.9-16.19t9-16.65Z"/><path class="cls-3" d="M653.85,199.93v18.49a16.23,16.23,0,0,1-2.49.31c-1,.05-2.08.07-3.41.07a15.4,15.4,0,0,1-6.45-1.26,12.47,12.47,0,0,1-4.6-3.57,15.42,15.42,0,0,1-2.76-5.49,25.22,25.22,0,0,1-.92-7.09q0-8.05,3.72-12.7T649,184.05a24,24,0,0,1,7,1,31,31,0,0,1,5.63,2.26l3.46-9.59c-.41-.25-1.09-.61-2-1.07a23.71,23.71,0,0,0-3.6-1.34,41.61,41.61,0,0,0-5.22-1.15,41.16,41.16,0,0,0-6.79-.5,29.15,29.15,0,0,0-10.4,1.84,24,24,0,0,0-8.47,5.41,25.31,25.31,0,0,0-5.68,8.7,31.48,31.48,0,0,0-2.07,11.82,34.14,34.14,0,0,0,1.88,11.74A24.07,24.07,0,0,0,628,221.8a22.8,22.8,0,0,0,8.32,5.37A30.7,30.7,0,0,0,647.18,229a60.62,60.62,0,0,0,11.74-1,45.42,45.42,0,0,0,6.9-1.8V199.93Z"/><path class="cls-3" d="M707.71,174.84v32.07q0,6.45-2.72,9.13a9.69,9.69,0,0,1-7.1,2.69,12.16,12.16,0,0,1-3.95-.62,7.08,7.08,0,0,1-3.07-2,10.08,10.08,0,0,1-2-3.68,17.94,17.94,0,0,1-.73-5.49V174.84h-12v33.07a27.5,27.5,0,0,0,1.26,8.55,17.48,17.48,0,0,0,3.92,6.68,17.94,17.94,0,0,0,6.71,4.37,26.74,26.74,0,0,0,9.67,1.57,28.37,28.37,0,0,0,9.82-1.53,17.93,17.93,0,0,0,6.83-4.34,17.5,17.5,0,0,0,4-6.71,27,27,0,0,0,1.31-8.59V174.84Z"/><path class="cls-3" d="M771.69,222.06q-1.61-3-3.33-5.83t-3.5-5.37c-1.17-1.71-2.3-3.23-3.37-4.56a16.9,16.9,0,0,0,7.4-5.49,14.88,14.88,0,0,0,2.57-9.09q0-9-6.36-13.23t-18.34-4.26q-3.3,0-7.48.31a66.86,66.86,0,0,0-8.09,1.07V228h12V208.6h5.91c1,1.23,2.05,2.6,3.08,4.1s2.07,3.11,3.12,4.8,2.08,3.43,3.08,5.22l3,5.29h13.37C773.76,226.07,772.77,224.09,771.69,222.06ZM756.2,197.4q-2.93,1.69-9.67,1.69h-3.38V184.66l2-.15c.69,0,1.47-.08,2.34-.08q5.76,0,8.71,1.65a5.86,5.86,0,0,1,3,5.57Q759.11,195.72,756.2,197.4Z"/><path class="cls-3" d="M812.51,174.84v32.07q0,6.45-2.73,9.13a9.66,9.66,0,0,1-7.09,2.69,12.12,12.12,0,0,1-4-.62,7,7,0,0,1-3.07-2,10.09,10.09,0,0,1-2-3.68,17.94,17.94,0,0,1-.73-5.49V174.84H781v33.07a27.5,27.5,0,0,0,1.27,8.55,17.59,17.59,0,0,0,3.91,6.68,18,18,0,0,0,6.72,4.37,26.72,26.72,0,0,0,9.66,1.57,28.33,28.33,0,0,0,9.82-1.53,17.85,17.85,0,0,0,6.83-4.34,17.52,17.52,0,0,0,4-6.71,27,27,0,0,0,1.3-8.59V174.84Z"/><path class="cls-1" d="M426.66,247.4c-1.61-1.14-3.9-1.71-6.89-1.71-.86,0-1.8,0-2.84.11a15.89,15.89,0,0,0-2.8.42v21h3v-7.88h2.36a19.52,19.52,0,0,0,4-.37,8.84,8.84,0,0,0,3-1.18,5.39,5.39,0,0,0,1.9-2.12,6.9,6.9,0,0,0,.66-3.14A5.8,5.8,0,0,0,426.66,247.4Zm-1.18,7.16a3.41,3.41,0,0,1-1.3,1.31,6.44,6.44,0,0,1-2.08.67,17.6,17.6,0,0,1-2.76.2H417.1v-8.35c.68-.06,1.65-.09,2.92-.09a12.72,12.72,0,0,1,2.27.19,5.57,5.57,0,0,1,1.89.66,3.47,3.47,0,0,1,1.28,1.27,3.89,3.89,0,0,1,.48,2A4.28,4.28,0,0,1,425.48,254.56Z"/><path class="cls-1" d="M445.46,264.6V245.91h-3v21.26h12.8V264.6Z"/><path class="cls-1" d="M484.12,260.93q-1.06-2.87-2.1-5.45t-2-4.92c-.68-1.57-1.38-3.12-2.12-4.65h-2.73c-.74,1.53-1.44,3.08-2.12,4.65s-1.35,3.2-2,4.92-1.38,3.54-2.1,5.45-1.48,4-2.3,6.24h3.1l1.93-5.43h9.64l.95,2.72c.31.89.63,1.79,1,2.71h3.25C485.6,264.92,484.84,262.84,484.12,260.93Zm-11.66-1.64c.64-1.78,1.27-3.5,1.92-5.17s1.32-3.27,2-4.81c.69,1.54,1.37,3.14,2,4.81s1.29,3.39,1.95,5.17Z"/><path class="cls-1" d="M508.8,245.91q-1.2,2.52-2.64,5.11t-3,5c-1-1.6-2-3.26-3-5s-1.83-3.43-2.6-5.11h-3.5q1.65,3.06,3.53,6.26t4,6.47v8.53h3v-8.59q2.08-3.25,4-6.43c1.25-2.11,2.43-4.2,3.53-6.24Z"/><path class="cls-1" d="M553.63,245.91q-1.2,2.52-2.64,5.11t-3,5q-1.53-2.4-3-5c-1-1.73-1.83-3.43-2.61-5.11H539q1.65,3.06,3.53,6.26t4,6.47v8.53h3v-8.59q2.1-3.25,4-6.43c1.25-2.11,2.43-4.2,3.53-6.24Z"/><path class="cls-1" d="M586.85,251.71a10.06,10.06,0,0,0-2.2-3.48,9.11,9.11,0,0,0-3.2-2.11,10.68,10.68,0,0,0-3.88-.7,11,11,0,0,0-4,.7,9.13,9.13,0,0,0-3.25,2.11,9.94,9.94,0,0,0-2.21,3.48,14.72,14.72,0,0,0,0,9.63,9.89,9.89,0,0,0,2.21,3.49,9.1,9.1,0,0,0,3.25,2.1,11,11,0,0,0,4,.7,10.68,10.68,0,0,0,3.88-.7,9.08,9.08,0,0,0,3.2-2.1,10,10,0,0,0,2.2-3.49,14.72,14.72,0,0,0,0-9.63ZM584,260a7.89,7.89,0,0,1-1.4,2.69,6.18,6.18,0,0,1-2.19,1.7,6.83,6.83,0,0,1-2.92.6,6.94,6.94,0,0,1-2.93-.6,6.25,6.25,0,0,1-2.21-1.7A7.88,7.88,0,0,1,571,260a12.85,12.85,0,0,1,0-7,7.74,7.74,0,0,1,1.39-2.68,6.16,6.16,0,0,1,2.21-1.71,7.1,7.1,0,0,1,2.93-.59,7,7,0,0,1,2.92.59,6.09,6.09,0,0,1,2.19,1.71A7.75,7.75,0,0,1,584,253a12.85,12.85,0,0,1,0,7Z"/><path class="cls-1" d="M614.79,245.91v13a9,9,0,0,1-.37,2.75,4.94,4.94,0,0,1-1,1.88,4,4,0,0,1-1.61,1.09,5.79,5.79,0,0,1-2.08.36,4.9,4.9,0,0,1-3.68-1.45q-1.41-1.44-1.41-4.63v-13h-3v13.35a11,11,0,0,0,.48,3.31,7.25,7.25,0,0,0,1.46,2.66,6.8,6.8,0,0,0,2.51,1.76,9.33,9.33,0,0,0,3.62.64,9.17,9.17,0,0,0,3.61-.64,7.1,7.1,0,0,0,2.52-1.76,7.27,7.27,0,0,0,1.47-2.66,11,11,0,0,0,.47-3.31V245.91Z"/><path class="cls-1" d="M647.36,264.63c-.52-.88-1.05-1.73-1.58-2.53s-1-1.55-1.55-2.21-.91-1.21-1.24-1.61a6.7,6.7,0,0,0,3.3-2.24,5.89,5.89,0,0,0,1.12-3.63,5.79,5.79,0,0,0-2.35-5c-1.56-1.12-3.84-1.69-6.83-1.69-.86,0-1.8,0-2.84.11a16,16,0,0,0-2.8.42v21h3v-8.31h3.52q.4,0,.81,0c.39.47.82,1,1.3,1.66s1,1.31,1.46,2,1,1.48,1.46,2.28.93,1.59,1.33,2.36h3.26A27.47,27.47,0,0,0,647.36,264.63Zm-4.85-9a6.34,6.34,0,0,1-2.07.58,23,23,0,0,1-2.76.15h-2.12v-8c.68-.06,1.65-.09,2.92-.09a12.33,12.33,0,0,1,2.25.19,5.39,5.39,0,0,1,1.85.64,3.48,3.48,0,0,1,1.24,1.26,3.91,3.91,0,0,1,.46,2,4.08,4.08,0,0,1-.46,2.08A3.13,3.13,0,0,1,642.51,255.67Z"/><path class="cls-1" d="M700.34,245.91c-.28,1.59-.58,3.2-.89,4.8s-.61,3.16-.93,4.67-.64,2.94-1,4.31-.65,2.63-1,3.77c-.82-2.15-1.7-4.5-2.64-7.07s-1.81-5.22-2.61-8h-2.58c-.79,2.75-1.65,5.4-2.57,8s-1.79,4.92-2.61,7.07c-.35-1.16-.69-2.43-1-3.8s-.66-2.81-1-4.32-.64-3.05-.95-4.64-.6-3.2-.89-4.79h-3.13q1.08,6.14,2.32,11.35a101.44,101.44,0,0,0,2.87,9.91h3q1.31-3.32,2.63-6.81t2.61-7.61q1.29,4.11,2.58,7.61t2.64,6.81h3q1.59-4.68,2.83-9.91t2.35-11.35Z"/><path class="cls-1" d="M734.73,251.71a10,10,0,0,0-2.19-3.48,9.15,9.15,0,0,0-3.21-2.11,10.68,10.68,0,0,0-3.88-.7,11,11,0,0,0-4,.7,9.13,9.13,0,0,0-3.25,2.11,9.94,9.94,0,0,0-2.21,3.48,14.72,14.72,0,0,0,0,9.63,9.89,9.89,0,0,0,2.21,3.49,9.1,9.1,0,0,0,3.25,2.1,11,11,0,0,0,4,.7,10.68,10.68,0,0,0,3.88-.7,9.12,9.12,0,0,0,3.21-2.1,10,10,0,0,0,2.19-3.49,14.72,14.72,0,0,0,0-9.63ZM731.89,260a7.89,7.89,0,0,1-1.4,2.69,6.18,6.18,0,0,1-2.19,1.7,6.82,6.82,0,0,1-2.91.6,7,7,0,0,1-2.94-.6,6.25,6.25,0,0,1-2.21-1.7,8.06,8.06,0,0,1-1.39-2.69,12.85,12.85,0,0,1,0-7,7.91,7.91,0,0,1,1.39-2.68,6.16,6.16,0,0,1,2.21-1.71,7.11,7.11,0,0,1,2.94-.59,7,7,0,0,1,2.91.59,6.09,6.09,0,0,1,2.19,1.71,7.75,7.75,0,0,1,1.4,2.68,12.85,12.85,0,0,1,0,7Z"/><path class="cls-1" d="M764.43,264.63c-.52-.88-1-1.73-1.58-2.53s-1-1.55-1.55-2.21-.91-1.21-1.24-1.61a6.7,6.7,0,0,0,3.3-2.24,5.89,5.89,0,0,0,1.12-3.63,5.79,5.79,0,0,0-2.35-5c-1.56-1.12-3.84-1.69-6.83-1.69-.85,0-1.8,0-2.83.11a16,16,0,0,0-2.81.42v21h3v-8.31h3.51q.42,0,.81,0c.39.47.83,1,1.31,1.66s1,1.31,1.45,2,1,1.48,1.46,2.28.93,1.59,1.34,2.36h3.25A25.24,25.24,0,0,0,764.43,264.63Zm-4.84-9a6.48,6.48,0,0,1-2.08.58,22.72,22.72,0,0,1-2.76.15h-2.11v-8q1-.09,2.91-.09a12.52,12.52,0,0,1,2.26.19,5.34,5.34,0,0,1,1.84.64,3.48,3.48,0,0,1,1.24,1.26,3.91,3.91,0,0,1,.46,2,4.08,4.08,0,0,1-.46,2.08A3.17,3.17,0,0,1,759.59,255.67Z"/><path class="cls-1" d="M781.64,264.6V245.91h-3v21.26h12.79V264.6Z"/><path class="cls-1" d="M820.88,251.72a8.87,8.87,0,0,0-2.42-3.37,10.26,10.26,0,0,0-3.74-2,16.51,16.51,0,0,0-4.79-.66c-.86,0-1.81,0-2.84.11a16.16,16.16,0,0,0-2.81.42v20.62a17.22,17.22,0,0,0,2.81.41c1,.07,2,.11,2.84.11a16.51,16.51,0,0,0,4.79-.66,10.26,10.26,0,0,0,3.74-2,8.87,8.87,0,0,0,2.42-3.37,13.85,13.85,0,0,0,0-9.61Zm-4.38,10.87c-1.4,1.44-3.5,2.16-6.33,2.16q-1.24,0-1.95,0l-1-.06V248.39l1-.06q.71,0,1.95,0c2.83,0,4.93.72,6.33,2.17a9.87,9.87,0,0,1,0,12.12Z"/></g></g></svg>